<?xml version="1.0" standalone="no"?>
<!DOCTYPE svg PUBLIC "-//W3C//DTD SVG 20010904//EN"
 "http://www.w3.org/TR/2001/REC-SVG-20010904/DTD/svg10.dtd">
<svg version="1.0" xmlns="http://www.w3.org/2000/svg"
 width="230.000000pt" height="258.000000pt" viewBox="0 0 230.000000 258.000000"
 preserveAspectRatio="xMidYMid meet">

<g transform="translate(0.000000,258.000000) scale(0.100000,-0.100000)"
fill="#000000" stroke="none">
<path d="M955 2436 c-361 -70 -640 -331 -737 -687 -33 -121 -33 -347 0 -468
90 -333 341 -583 673 -673 122 -33 348 -33 468 0 333 91 583 340 673 673 33
121 33 347 0 468 -90 330 -340 582 -667 671 -102 28 -307 36 -410 16z m343
-192 c91 -19 228 -87 305 -151 174 -145 268 -348 268 -578 0 -134 -23 -232
-81 -343 -132 -254 -378 -403 -665 -403 -287 0 -533 149 -665 403 -58 111 -81
209 -81 343 0 286 149 533 401 664 165 86 323 105 518 65z"/>
<path d="M845 1893 l0 -88 188 -5 187 -5 -184 -276 -185 -277 -3 -96 -3 -96
280 0 280 0 0 87 0 88 -188 5 -187 5 184 276 185 277 3 96 3 96 -280 0 -280 0
0 -87z"/>
<path d="M610 444 c0 -21 4 -33 10 -29 6 3 10 13 10 21 0 8 12 19 26 24 27 11
84 14 84 4 0 -5 -70 -126 -122 -211 l-20 -33 90 0 c89 0 90 0 96 26 7 27 -3
49 -11 26 -11 -29 -36 -42 -83 -42 l-49 0 69 120 c39 66 70 122 70 125 0 3
-38 5 -85 5 l-85 0 0 -36z"/>
<path d="M846 375 c-16 -58 -35 -117 -42 -130 -12 -24 -12 -25 19 -25 20 0 27
3 19 8 -8 6 -10 19 -6 41 6 30 9 32 42 29 29 -2 37 -8 43 -28 3 -14 1 -31 -4
-37 -7 -10 8 -13 69 -13 59 1 74 3 62 11 -14 8 -18 23 -18 65 l0 55 43 -3 42
-3 3 -46 c2 -33 -2 -51 -13 -63 -15 -15 -10 -16 72 -16 65 1 83 3 71 11 -13 7
-18 23 -18 59 0 28 4 50 10 50 5 0 23 -27 40 -60 26 -52 34 -60 58 -59 15 0
21 3 14 6 -20 8 -75 123 -59 123 21 0 47 34 47 61 0 54 -34 69 -155 69 -88 0
-95 -1 -81 -16 10 -9 16 -33 16 -60 l0 -44 -45 0 -45 0 0 50 c0 36 5 52 18 59
13 8 7 10 -28 10 -25 0 -39 -3 -32 -6 9 -3 12 -38 12 -124 0 -108 -2 -119 -18
-119 -19 0 -21 5 -72 178 -12 39 -25 72 -29 72 -3 0 -20 -47 -35 -105z m349
-25 c0 -104 -2 -115 -19 -118 -29 -6 -36 16 -36 115 0 107 5 125 34 121 20 -3
21 -8 21 -118z m103 92 c26 -34 6 -76 -40 -88 -28 -6 -28 -6 -28 48 0 30 3 58
7 61 10 10 46 -2 61 -21z m-403 -89 c6 -31 5 -33 -20 -33 -21 0 -26 4 -21 16
3 9 9 27 12 41 8 30 19 20 29 -24z"/>
<path d="M1368 473 c8 -3 12 -32 12 -92 0 -104 13 -149 47 -162 33 -12 71 -1
85 25 7 11 14 66 17 121 6 91 8 100 26 100 19 0 20 -8 23 -110 2 -95 0 -111
-15 -122 -14 -11 -2 -13 74 -13 l91 0 4 30 c3 17 3 30 2 30 -2 0 -14 -11 -28
-25 -17 -17 -36 -25 -61 -25 l-35 0 0 115 c0 98 2 115 18 124 12 8 -5 10 -66
11 -76 0 -82 -1 -68 -16 12 -11 16 -36 16 -97 0 -90 -14 -130 -46 -135 -36 -5
-48 24 -52 122 -4 77 -1 95 13 109 15 16 14 17 -27 16 -24 0 -37 -3 -30 -6z"/>
</g>
</svg>
